<svg xmlns="http://www.w3.org/2000/svg" xmlns:xlink="http://www.w3.org/1999/xlink" width="149" height="21" viewBox="0 0 149 21">
    <defs>
        <path id="a" d="M0 21h149V0H0z"/>
    </defs>
    <g fill="none" fill-rule="evenodd">
        <path fill="#FFF" d="M40.093 11.12h2.94c.978 0 1.793.138 2.415.405.412.18.763.453 1.064.835.281.359.419.744.419 1.184 0 .394-.12.763-.366 1.128-.253.37-.622.681-1.102.923-.486.245-1.062.37-1.713.37h-3.657v-4.844zm4.996-4.995c.197.31.295.628.295.97 0 .425-.122.772-.378 1.06-.285.322-.58.547-.866.667-.222.085-.45.15-.674.185a5.821 5.821 0 0 1-.891.057h-2.482V5.056h2.526c.609 0 1.133.105 1.556.308.414.203.713.452.914.761zm1.31 3.585c.217-.228.41-.492.582-.79a3.662 3.662 0 0 0 .472-1.826 3.71 3.71 0 0 0-.342-1.55 4.003 4.003 0 0 0-.96-1.306C45.266 3.416 44.078 3 42.619 3h-4.595L38 18h5.75a6.13 6.13 0 0 0 2.045-.342 5.349 5.349 0 0 0 1.717-.974 4.427 4.427 0 0 0 1.1-1.449A3.968 3.968 0 0 0 49 13.544a3.81 3.81 0 0 0-.821-2.393 4.804 4.804 0 0 0-1.78-1.44z"/>
        <mask id="b" fill="#fff">
            <use xlink:href="#a"/>
        </mask>
        <path fill="#FFF" d="M54 18h2V3h-2zM65.093 11.12h2.939c.981 0 1.794.138 2.414.405.414.18.763.453 1.066.835.281.359.419.744.419 1.184 0 .394-.12.763-.366 1.128-.253.37-.624.681-1.103.923-.485.245-1.06.37-1.71.37h-3.659v-4.844zm4.996-4.995c.197.31.295.628.295.97 0 .425-.123.772-.378 1.06-.285.322-.58.547-.864.667a3.477 3.477 0 0 1-.677.185 5.78 5.78 0 0 1-.89.057h-2.482V5.056h2.526c.609 0 1.133.105 1.556.308.412.203.713.452.914.761zm3.091 5.026a4.8 4.8 0 0 0-1.782-1.44c.218-.229.413-.493.583-.79a3.662 3.662 0 0 0 .472-1.827c0-.533-.113-1.053-.342-1.55a4.009 4.009 0 0 0-.962-1.306C70.266 3.416 69.077 3 67.619 3h-4.593L63 18h5.752c.713 0 1.399-.115 2.043-.342a5.33 5.33 0 0 0 1.717-.974 4.427 4.427 0 0 0 1.1-1.449A3.942 3.942 0 0 0 74 13.544a3.82 3.82 0 0 0-.82-2.393zM93.993 18V7.066l-6.446 8.741-6.538-8.763V18H80V4l7.547 10.129L95 4v14zM107.643 6.362l-3.41 7.17h6.663l-3.253-7.17zm-3.868 8.128L102.093 18H101l6.686-14L114 18h-1.072l-1.593-3.51h-7.56zM128.65 18l-6.082-7.065h1.801c1.113 0 2.014-.136 2.704-.408.51-.23.952-.578 1.33-1.046.374-.465.563-.98.563-1.54 0-.503-.159-.98-.475-1.43-.316-.454-.766-.825-1.35-1.112-.587-.286-1.263-.43-2.027-.43h-4.1V18H120V4h5.114c.69 0 1.336.104 1.937.313.601.207 1.124.506 1.575.892a3.99 3.99 0 0 1 1.003 1.271 3.335 3.335 0 0 1-.393 3.588c-.496.622-1.081 1.071-1.758 1.345-.466.202-.92.326-1.362.377-.444.051-.912.075-1.408.075L130 18h-1.35zM149 17.766h-1.313l-5.094-5.868L138 18V4h.985v11.035L147.273 4h1.246l-5.336 7.073zM.86 15.87h25.26V5.132H.86V15.87zM25.2 0H1.799C.804 0 0 .8 0 1.79v17.422C0 20.2.804 21 1.799 21h23.4c.995 0 1.801-.8 1.801-1.788V1.79C27 .8 26.194 0 25.2 0z" mask="url(#b)"/>
    </g>
</svg>
