<svg xmlns="http://www.w3.org/2000/svg" xmlns:xlink="http://www.w3.org/1999/xlink" width="225" height="32" viewBox="0 0 225 32">
    <defs>
        <path id="a" d="M0 32h225V0H0z"/>
    </defs>
    <g fill="none" fill-rule="evenodd">
        <path fill="#000" d="M60.235 16.452h4.544c1.511 0 2.77.21 3.731.62.638.274 1.18.694 1.644 1.28.436.55.648 1.141.648 1.815 0 .605-.186 1.17-.565 1.73-.39.568-.962 1.045-1.703 1.416-.751.376-1.641.568-2.648.568h-5.651v-7.43zm7.72-7.66c.306.474.457.962.457 1.486 0 .653-.188 1.185-.584 1.625-.441.496-.898.84-1.339 1.025-.342.13-.696.228-1.04.282a9.066 9.066 0 0 1-1.38.089h-3.834V7.153h3.904c.94 0 1.75.16 2.403.472.64.311 1.103.692 1.413 1.167zm2.027 5.497c.334-.35.632-.755.897-1.21a5.58 5.58 0 0 0 .73-2.801c0-.817-.177-1.616-.528-2.378a6.141 6.141 0 0 0-1.484-2.002C68.229 4.638 66.394 4 64.139 4h-7.102L57 27h8.886a9.542 9.542 0 0 0 3.16-.524 8.283 8.283 0 0 0 2.654-1.493 6.793 6.793 0 0 0 1.7-2.223c.396-.837.6-1.711.6-2.593a5.814 5.814 0 0 0-1.27-3.669 7.413 7.413 0 0 0-2.748-2.209z"/>
        <mask id="b" fill="#fff">
            <use xlink:href="#a"/>
        </mask>
        <path fill="#000" d="M82 27h3V4h-3zM98.235 16.452h4.541c1.517 0 2.773.21 3.732.62.64.274 1.179.694 1.646 1.28.436.55.648 1.141.648 1.815 0 .605-.186 1.17-.565 1.73-.39.568-.964 1.045-1.705 1.416-.75.376-1.639.568-2.643.568h-5.654v-7.43zm7.72-7.66c.306.474.457.962.457 1.486 0 .653-.191 1.185-.584 1.625-.441.496-.898.84-1.336 1.025-.348.13-.699.228-1.046.282-.356.057-.821.089-1.376.089h-3.835V7.153h3.904c.94 0 1.75.16 2.403.472.638.311 1.103.692 1.413 1.167zm4.778 7.706a7.408 7.408 0 0 0-2.754-2.209c.337-.35.637-.755.9-1.21a5.58 5.58 0 0 0 .73-2.801c0-.817-.175-1.616-.528-2.378a6.15 6.15 0 0 0-1.487-2.002C106.229 4.638 104.391 4 102.139 4h-7.1L95 27h8.89a9.55 9.55 0 0 0 3.157-.524 8.255 8.255 0 0 0 2.653-1.493 6.793 6.793 0 0 0 1.7-2.223c.398-.837.6-1.711.6-2.593a5.827 5.827 0 0 0-1.267-3.669zM141.523 27V9.817l-9.454 13.738-9.59-13.772V27H121V5l11.069 15.916L143 5v22zM163.22 8.712l-5.245 11.268h10.25L163.22 8.712zm-5.95 12.772L154.68 27H153l10.286-22L173 27h-1.65l-2.45-5.516h-11.63zM194.976 27l-9.123-11.103h2.7c1.67 0 3.021-.213 4.056-.64.765-.361 1.429-.909 1.994-1.643.563-.732.845-1.542.845-2.42 0-.79-.237-1.541-.712-2.25-.474-.712-1.149-1.294-2.026-1.746-.88-.449-1.893-.676-3.04-.676h-6.15V27H182V5h7.67c1.035 0 2.006.163 2.907.491a7.142 7.142 0 0 1 2.362 1.403 6.235 6.235 0 0 1 1.504 1.997c.352.746.525 1.512.525 2.303a5.4 5.4 0 0 1-1.114 3.336c-.744.977-1.622 1.682-2.637 2.112a6.951 6.951 0 0 1-2.043.593 17.69 17.69 0 0 1-2.111.118L197 27h-2.024zM225 26.632h-2.03l-7.871-9.22L208 27V5h1.523v17.341L222.33 5h1.925l-8.245 11.114zM1.306 24.182h38.359V7.821H1.306v16.361zM38.266 0H2.731A2.727 2.727 0 0 0 0 2.726v26.55A2.726 2.726 0 0 0 2.731 32h35.535C39.776 32 41 30.78 41 29.276V2.726A2.73 2.73 0 0 0 38.266 0z" mask="url(#b)"/>
    </g>
</svg>
