<svg xmlns="http://www.w3.org/2000/svg" xmlns:xlink="http://www.w3.org/1999/xlink" width="25" height="25" viewBox="0 0 25 25">
    <defs>
        <path id="a" d="M0 .004h12.996v12.994H0z"/>
    </defs>
    <g fill="none" fill-rule="evenodd">
        <path fill="#444" d="M0 12.5C0 19.403 5.596 25 12.5 25S25 19.403 25 12.5C25 5.596 19.404 0 12.5 0S0 5.596 0 12.5z"/>
        <g transform="translate(6 6)">
            <mask id="b" fill="#fff">
                <use xlink:href="#a"/>
            </mask>
            <path fill="#FFF" d="M6.498.004c-1.765 0-1.986.008-2.68.04-.69.03-1.163.14-1.576.301-.428.166-.79.388-1.151.75a3.185 3.185 0 0 0-.75 1.15c-.16.414-.27.886-.302 1.578C.007 4.516 0 4.737 0 6.503 0 8.266.007 8.487.04 9.18c.03.692.14 1.164.301 1.577.166.428.388.79.75 1.151.36.362.723.584 1.15.75.414.16.886.27 1.578.302.693.032.914.039 2.679.039 1.765 0 1.986-.007 2.679-.04.692-.03 1.164-.14 1.577-.301.428-.166.79-.388 1.151-.75.362-.36.584-.723.75-1.15.16-.414.27-.886.302-1.578.031-.693.039-.914.039-2.679 0-1.765-.008-1.986-.04-2.679-.03-.692-.14-1.164-.301-1.577a3.185 3.185 0 0 0-.75-1.151 3.185 3.185 0 0 0-1.15-.75c-.414-.16-.886-.27-1.578-.302C8.484.012 8.263.004 6.498.004zm0 1.17c1.735 0 1.94.008 2.626.039.633.029.977.135 1.206.224.304.117.52.258.747.486.228.227.369.443.486.747.09.229.195.573.224 1.206.031.686.038.891.038 2.626 0 1.735-.007 1.94-.038 2.626-.029.633-.135.977-.224 1.206-.117.304-.258.52-.486.747a2.013 2.013 0 0 1-.747.487c-.229.089-.573.194-1.206.223-.685.032-.89.038-2.626.038-1.735 0-1.94-.006-2.626-.038-.633-.029-.977-.134-1.206-.223a2.013 2.013 0 0 1-.747-.487 2.013 2.013 0 0 1-.487-.747c-.089-.229-.194-.573-.223-1.206-.032-.685-.038-.89-.038-2.626 0-1.735.006-1.94.038-2.626.029-.633.134-.977.223-1.206.118-.304.26-.52.487-.747.227-.228.443-.369.747-.486.229-.09.573-.195 1.206-.224.685-.031.89-.038 2.626-.038z" mask="url(#b)"/>
        </g>
        <g fill="#FFF">
            <path d="M12.432 14.746a2.178 2.178 0 1 1 0-4.356 2.178 2.178 0 0 1 0 4.356zm0-5.533a3.355 3.355 0 1 0 0 6.71 3.355 3.355 0 0 0 0-6.71zM16.704 9.08a.784.784 0 1 1-1.568 0 .784.784 0 0 1 1.568 0"/>
        </g>
    </g>
</svg>
