<svg xmlns="http://www.w3.org/2000/svg" width="64" height="64" viewBox="0 0 64 64">
    <g fill="none" fill-rule="evenodd">
        <circle cx="32" cy="32" r="32" fill="#FFF" opacity=".4"/>
        <path fill="#000" fill-rule="nonzero" d="M20.8 22c-.442 0-.8.37-.8.825 0 .456.358.825.8.825h2.551l2.751 13.38c.108.504.43.923.834.92h13.338c.423.006.811-.389.811-.825 0-.436-.388-.831-.811-.825H27.586l-.342-1.65h14.097a.83.83 0 0 0 .775-.645l1.867-8.25c.105-.479-.299-1.002-.775-1.005h-17.99l-.433-2.097c-.076-.366-.42-.653-.784-.653h-3.2zm4.752 4.4h16.647L40.707 33H26.91l-1.358-6.6zm4.051 12.1c-1.464 0-2.667 1.24-2.667 2.75S28.139 44 29.603 44c1.464 0 2.668-1.24 2.668-2.75s-1.204-2.75-2.668-2.75zm8.003 0c-1.464 0-2.667 1.24-2.667 2.75S36.142 44 37.606 44c1.464 0 2.668-1.24 2.668-2.75s-1.204-2.75-2.668-2.75zm-8.003 1.65c.6 0 1.067.482 1.067 1.1 0 .618-.467 1.1-1.067 1.1-.599 0-1.067-.482-1.067-1.1 0-.618.468-1.1 1.067-1.1zm8.003 0c.6 0 1.067.482 1.067 1.1 0 .618-.468 1.1-1.067 1.1s-1.067-.482-1.067-1.1c0-.618.468-1.1 1.067-1.1z"/>
    </g>
</svg>
