<svg xmlns="http://www.w3.org/2000/svg" width="25" height="25" viewBox="0 0 25 25">
    <g fill="none" fill-rule="evenodd">
        <path fill="#444" d="M12.5 0C5.596 0 0 5.596 0 12.5 0 19.403 5.596 25 12.5 25 19.403 25 25 19.403 25 12.5 25 5.596 19.403 0 12.5 0"/>
        <path fill="#FFF" d="M12.088 19c-.038 0-.071 0-.105-.005-.024 0-.048.005-.071.005-.832 0-1.362-.373-1.878-.732-.353-.25-.692-.483-1.084-.549a3.388 3.388 0 0 0-.568-.047c-.334 0-.597.052-.788.09-.115.023-.22.043-.296.043-.081 0-.167-.02-.206-.147-.033-.109-.057-.217-.08-.321-.058-.265-.101-.43-.216-.45-1.313-.202-1.69-.477-1.777-.67A.272.272 0 0 1 5 16.132a.141.141 0 0 1 .125-.152c2.02-.33 2.927-2.372 2.965-2.462 0-.004 0-.004.005-.009.125-.246.148-.463.072-.638-.139-.321-.592-.468-.888-.558-.072-.023-.144-.042-.196-.066-.597-.231-.65-.472-.626-.595.038-.208.32-.355.55-.355.061 0 .119.01.162.033.267.123.51.19.721.19.287 0 .416-.119.43-.138-.01-.137-.014-.278-.024-.42-.062-.945-.134-2.122.167-2.793.908-2.008 2.828-2.164 3.396-2.164L12.107 6h.034c.568 0 2.493.156 3.4 2.169.302.671.23 1.848.168 2.793l-.005.042c-.01.133-.014.26-.024.383.014.014.13.123.392.137.2-.01.43-.07.678-.189a.592.592 0 0 1 .454.005h.005c.205.07.334.212.339.359.004.137-.105.345-.63.553-.053.019-.125.042-.197.066-.3.094-.75.236-.888.558-.076.175-.052.392.072.638 0 .004 0 .004.004.01.039.084.946 2.13 2.966 2.461.077.014.13.08.125.151 0 .029-.01.057-.02.085-.08.194-.458.468-1.776.667-.105.014-.148.156-.215.444-.024.104-.048.208-.081.316-.03.095-.086.137-.187.137h-.014c-.072 0-.167-.014-.296-.037a3.994 3.994 0 0 0-.788-.085c-.186 0-.378.014-.569.047-.396.066-.73.298-1.084.548-.52.369-1.055.742-1.882.742"/>
    </g>
</svg>
