<svg xmlns="http://www.w3.org/2000/svg" width="24" height="25" viewBox="0 0 24 25">
    <g fill="none" fill-rule="evenodd">
        <path fill="#444" d="M16.771 9.95c.005.11.008.221.008.333 0 3.388-2.476 7.296-7.005 7.296A6.77 6.77 0 0 1 6 16.427a4.814 4.814 0 0 0 3.645-1.062c-1.078-.02-1.987-.762-2.3-1.78a2.388 2.388 0 0 0 1.112-.045c-1.127-.235-1.975-1.272-1.975-2.514v-.033c.332.192.712.308 1.115.321A2.594 2.594 0 0 1 6.503 9.18c0-.47.121-.911.333-1.29 1.215 1.551 3.029 2.573 5.075 2.68a2.675 2.675 0 0 1-.064-.585c0-1.416 1.103-2.565 2.462-2.565.709 0 1.348.312 1.797.81a4.809 4.809 0 0 0 1.564-.621 2.561 2.561 0 0 1-1.083 1.418c.498-.062.972-.2 1.414-.404-.33.514-.748.966-1.229 1.328M12 0C5.372 0 0 5.596 0 12.5 0 19.403 5.372 25 12 25s12-5.597 12-12.5C24 5.596 18.628 0 12 0"/>
        <path fill="#FFF" d="M16.779 10.818c0 3.335-2.476 7.182-7.005 7.182A6.846 6.846 0 0 1 6 16.866a4.861 4.861 0 0 0 3.645-1.046c-1.078-.02-1.987-.75-2.3-1.752a2.424 2.424 0 0 0 1.112-.044c-1.127-.231-1.975-1.252-1.975-2.475v-.032c.332.19.712.303 1.115.316a2.542 2.542 0 0 1-1.095-2.101c0-.463.121-.897.333-1.27C8.05 9.99 9.864 10.995 11.91 11.1a2.593 2.593 0 0 1-.064-.575C11.846 9.13 12.95 8 14.308 8c.709 0 1.348.307 1.797.798a4.853 4.853 0 0 0 1.564-.613 2.527 2.527 0 0 1-1.083 1.397A4.845 4.845 0 0 0 18 9.184c-.33.506-.748.95-1.229 1.307.005.108.008.217.008.327z"/>
    </g>
</svg>
