<svg xmlns="http://www.w3.org/2000/svg" width="24" height="25" viewBox="0 0 24 25">
    <g fill="none" fill-rule="evenodd">
        <path fill="#444" d="M0 12.5C0 19.403 5.372 25 12 25s12-5.597 12-12.5C24 5.596 18.628 0 12 0S0 5.596 0 12.5z"/>
        <path fill="#FFF" d="M18 13.43c0 .92-.12 1.841-.12 1.841s-.117.783-.477 1.129c-.456.453-.967.455-1.202.481C14.52 16.996 12 17 12 17s-3.12-.027-4.08-.114c-.267-.047-.867-.033-1.323-.486-.36-.346-.477-1.129-.477-1.129S6 14.351 6 13.43v-.863c0-.921.12-1.84.12-1.84s.117-.785.477-1.13c.456-.453.967-.456 1.202-.482C9.48 9 11.998 9 11.998 9c.004 0 2.524 0 4.203.115.235.026.746.029 1.202.481.36.346.477 1.13.477 1.13s.12.92.12 1.84v.864z"/>
        <path fill="#444" d="M10 15l4-1.993L10 11z"/>
    </g>
</svg>
